<mxfile host="app.diagrams.net" modified="2024-04-07T10:00:00.000Z" agent="5.0 (Windows NT 10.0; Win64; x64) AppleWebKit/537.36 (KHTML, like Gecko) Chrome/86.0.4240.198 Safari/537.36" etag="3i8xtCoHiJ_Nh_V2rJkE" version="20.6.0">
  <diagram id="C5RBs43oDa-KdzZeNtuy" name="Firebase Structure Overview">
    <mxGraphModel dx="1422" dy="762" grid="1" gridSize="10" guides="1" tooltips="1" connect="1" arrows="1" fold="1" page="1" pageScale="1" pageWidth="827" pageHeight="1169" math="0" shadow="0">
      <root>
        <mxCell id="WIyWlLk6GJQsqaUBKTNV-0" />
        <mxCell id="WIyWlLk6GJQsqaUBKTNV-1" parent="WIyWlLk6GJQsqaUBKTNV-0" />

        <!-- TITLE -->
        <mxCell id="title" value="&lt;h1&gt;Estructura de Firebase - Quien Para&lt;/h1&gt;" style="text;html=1;strokeColor=none;fillColor=none;align=center;verticalAlign=middle;whiteSpace=wrap;rounded=0;" vertex="1" parent="WIyWlLk6GJQsqaUBKTNV-1">
          <mxGeometry x="40" y="20" width="740" height="40" as="geometry" />
        </mxCell>

        <!-- COLLECTIONS OVERVIEW -->
        <mxCell id="collections-box" value="" style="rounded=0;whiteSpace=wrap;html=1;fillColor=none;dashed=1;strokeWidth=2;" vertex="1" parent="WIyWlLk6GJQsqaUBKTNV-1">
          <mxGeometry x="40" y="80" width="740" height="170" as="geometry" />
        </mxCell>
        
        <mxCell id="collections-title" value="&lt;h2&gt;Colecciones Principales&lt;/h2&gt;" style="text;html=1;strokeColor=none;fillColor=none;align=left;verticalAlign=middle;whiteSpace=wrap;rounded=0;" vertex="1" parent="WIyWlLk6GJQsqaUBKTNV-1">
          <mxGeometry x="60" y="90" width="230" height="30" as="geometry" />
        </mxCell>

        <!-- USERS BOX -->
        <mxCell id="users-collection" value="&lt;b&gt;users&lt;/b&gt;&lt;br&gt;Almacena perfiles de usuario" style="rounded=1;whiteSpace=wrap;html=1;fillColor=#dae8fc;strokeColor=#6c8ebf;" vertex="1" parent="WIyWlLk6GJQsqaUBKTNV-1">
          <mxGeometry x="70" y="140" width="120" height="60" as="geometry" />
        </mxCell>

        <!-- PLANS BOX -->
        <mxCell id="plans-collection" value="&lt;b&gt;plans&lt;/b&gt;&lt;br&gt;Almacena datos de planes" style="rounded=1;whiteSpace=wrap;html=1;fillColor=#d5e8d4;strokeColor=#82b366;" vertex="1" parent="WIyWlLk6GJQsqaUBKTNV-1">
          <mxGeometry x="210" y="140" width="120" height="60" as="geometry" />
        </mxCell>

        <!-- APPLICATIONS BOX -->
        <mxCell id="applications-collection" value="&lt;b&gt;applications&lt;/b&gt;&lt;br&gt;Solicitudes a planes" style="rounded=1;whiteSpace=wrap;html=1;fillColor=#ffe6cc;strokeColor=#d79b00;" vertex="1" parent="WIyWlLk6GJQsqaUBKTNV-1">
          <mxGeometry x="350" y="140" width="120" height="60" as="geometry" />
        </mxCell>

        <!-- NOTIFICATIONS BOX -->
        <mxCell id="notifications-collection" value="&lt;b&gt;notifications&lt;/b&gt;&lt;br&gt;Alertas y notificaciones" style="rounded=1;whiteSpace=wrap;html=1;fillColor=#e1d5e7;strokeColor=#9673a6;" vertex="1" parent="WIyWlLk6GJQsqaUBKTNV-1">
          <mxGeometry x="490" y="140" width="120" height="60" as="geometry" />
        </mxCell>

        <!-- CHATS BOX -->
        <mxCell id="chats-collection" value="&lt;b&gt;chats&lt;/b&gt;&lt;br&gt;Mensajería entre usuarios" style="rounded=1;whiteSpace=wrap;html=1;fillColor=#f8cecc;strokeColor=#b85450;" vertex="1" parent="WIyWlLk6GJQsqaUBKTNV-1">
          <mxGeometry x="630" y="140" width="120" height="60" as="geometry" />
        </mxCell>

        <!-- RELATIONSHIPS -->
        <mxCell id="relationships-box" value="" style="rounded=0;whiteSpace=wrap;html=1;fillColor=none;dashed=1;strokeWidth=2;" vertex="1" parent="WIyWlLk6GJQsqaUBKTNV-1">
          <mxGeometry x="40" y="280" width="740" height="330" as="geometry" />
        </mxCell>
        
        <mxCell id="relationships-title" value="&lt;h2&gt;Relaciones entre Colecciones&lt;/h2&gt;" style="text;html=1;strokeColor=none;fillColor=none;align=left;verticalAlign=middle;whiteSpace=wrap;rounded=0;" vertex="1" parent="WIyWlLk6GJQsqaUBKTNV-1">
          <mxGeometry x="60" y="290" width="300" height="30" as="geometry" />
        </mxCell>

        <!-- ENTITIES FOR RELATIONSHIPS -->
        <mxCell id="rel-user" value="Usuario" style="rounded=1;whiteSpace=wrap;html=1;fillColor=#dae8fc;strokeColor=#6c8ebf;" vertex="1" parent="WIyWlLk6GJQsqaUBKTNV-1">
          <mxGeometry x="350" y="330" width="120" height="40" as="geometry" />
        </mxCell>

        <mxCell id="rel-plan" value="Plan" style="rounded=1;whiteSpace=wrap;html=1;fillColor=#d5e8d4;strokeColor=#82b366;" vertex="1" parent="WIyWlLk6GJQsqaUBKTNV-1">
          <mxGeometry x="350" y="450" width="120" height="40" as="geometry" />
        </mxCell>

        <mxCell id="rel-application" value="Aplicación" style="rounded=1;whiteSpace=wrap;html=1;fillColor=#ffe6cc;strokeColor=#d79b00;" vertex="1" parent="WIyWlLk6GJQsqaUBKTNV-1">
          <mxGeometry x="630" y="390" width="120" height="40" as="geometry" />
        </mxCell>

        <mxCell id="rel-notification" value="Notificación" style="rounded=1;whiteSpace=wrap;html=1;fillColor=#e1d5e7;strokeColor=#9673a6;" vertex="1" parent="WIyWlLk6GJQsqaUBKTNV-1">
          <mxGeometry x="70" y="390" width="120" height="40" as="geometry" />
        </mxCell>

        <mxCell id="rel-chat" value="Chat" style="rounded=1;whiteSpace=wrap;html=1;fillColor=#f8cecc;strokeColor=#b85450;" vertex="1" parent="WIyWlLk6GJQsqaUBKTNV-1">
          <mxGeometry x="350" y="540" width="120" height="40" as="geometry" />
        </mxCell>

        <!-- RELATIONSHIPS ARROWS -->
        <mxCell id="rel-user-plan" value="crea" style="endArrow=classic;html=1;rounded=0;strokeWidth=2;exitX=0.5;exitY=1;exitDx=0;exitDy=0;entryX=0.5;entryY=0;entryDx=0;entryDy=0;" edge="1" parent="WIyWlLk6GJQsqaUBKTNV-1" source="rel-user" target="rel-plan">
          <mxGeometry width="50" height="50" relative="1" as="geometry">
            <mxPoint x="390" y="420" as="sourcePoint" />
            <mxPoint x="440" y="370" as="targetPoint" />
          </mxGeometry>
        </mxCell>

        <mxCell id="rel-user-application" value="solicita" style="endArrow=classic;html=1;rounded=0;strokeWidth=2;exitX=1;exitY=0.5;exitDx=0;exitDy=0;entryX=0;entryY=0;entryDx=0;entryDy=0;" edge="1" parent="WIyWlLk6GJQsqaUBKTNV-1" source="rel-user" target="rel-application">
          <mxGeometry width="50" height="50" relative="1" as="geometry">
            <mxPoint x="390" y="420" as="sourcePoint" />
            <mxPoint x="440" y="370" as="targetPoint" />
          </mxGeometry>
        </mxCell>

        <mxCell id="rel-plan-application" value="recibe" style="endArrow=classic;html=1;rounded=0;strokeWidth=2;exitX=1;exitY=0.5;exitDx=0;exitDy=0;entryX=0;entryY=1;entryDx=0;entryDy=0;" edge="1" parent="WIyWlLk6GJQsqaUBKTNV-1" source="rel-plan" target="rel-application">
          <mxGeometry width="50" height="50" relative="1" as="geometry">
            <mxPoint x="390" y="420" as="sourcePoint" />
            <mxPoint x="440" y="370" as="targetPoint" />
          </mxGeometry>
        </mxCell>

        <mxCell id="rel-user-notification" value="recibe" style="endArrow=classic;html=1;rounded=0;strokeWidth=2;exitX=0;exitY=0.5;exitDx=0;exitDy=0;entryX=1;entryY=0;entryDx=0;entryDy=0;" edge="1" parent="WIyWlLk6GJQsqaUBKTNV-1" source="rel-user" target="rel-notification">
          <mxGeometry width="50" height="50" relative="1" as="geometry">
            <mxPoint x="390" y="420" as="sourcePoint" />
            <mxPoint x="440" y="370" as="targetPoint" />
          </mxGeometry>
        </mxCell>

        <mxCell id="rel-plan-notification" value="genera" style="endArrow=classic;html=1;rounded=0;strokeWidth=2;exitX=0;exitY=0.5;exitDx=0;exitDy=0;entryX=1;entryY=1;entryDx=0;entryDy=0;" edge="1" parent="WIyWlLk6GJQsqaUBKTNV-1" source="rel-plan" target="rel-notification">
          <mxGeometry width="50" height="50" relative="1" as="geometry">
            <mxPoint x="390" y="420" as="sourcePoint" />
            <mxPoint x="440" y="370" as="targetPoint" />
          </mxGeometry>
        </mxCell>

        <mxCell id="rel-application-notification" value="genera" style="endArrow=classic;html=1;rounded=0;strokeWidth=2;exitX=0;exitY=0.5;exitDx=0;exitDy=0;entryX=1;entryY=0.5;entryDx=0;entryDy=0;" edge="1" parent="WIyWlLk6GJQsqaUBKTNV-1" source="rel-application" target="rel-notification">
          <mxGeometry width="50" height="50" relative="1" as="geometry">
            <mxPoint x="390" y="420" as="sourcePoint" />
            <mxPoint x="440" y="370" as="targetPoint" />
          </mxGeometry>
        </mxCell>

        <mxCell id="rel-user-chat" value="participa" style="endArrow=classic;html=1;rounded=0;strokeWidth=2;exitX=0.25;exitY=1;exitDx=0;exitDy=0;entryX=0.25;entryY=0;entryDx=0;entryDy=0;" edge="1" parent="WIyWlLk6GJQsqaUBKTNV-1" source="rel-plan" target="rel-chat">
          <mxGeometry width="50" height="50" relative="1" as="geometry">
            <mxPoint x="390" y="420" as="sourcePoint" />
            <mxPoint x="440" y="370" as="targetPoint" />
          </mxGeometry>
        </mxCell>

        <mxCell id="rel-chat-user" value="incluye" style="endArrow=classic;html=1;rounded=0;strokeWidth=2;exitX=0.75;exitY=0;exitDx=0;exitDy=0;entryX=0.75;entryY=1;entryDx=0;entryDy=0;" edge="1" parent="WIyWlLk6GJQsqaUBKTNV-1" source="rel-chat" target="rel-user">
          <mxGeometry width="50" height="50" relative="1" as="geometry">
            <mxPoint x="320" y="520" as="sourcePoint" />
            <mxPoint x="440" y="370" as="targetPoint" />
            <Array as="points">
              <mxPoint x="440" y="510" />
              <mxPoint x="440" y="390" />
            </Array>
          </mxGeometry>
        </mxCell>

        <!-- PROPOSED ADDITIONS SECTION -->
        <mxCell id="additions-box" value="" style="rounded=0;whiteSpace=wrap;html=1;fillColor=none;dashed=1;strokeWidth=2;" vertex="1" parent="WIyWlLk6GJQsqaUBKTNV-1">
          <mxGeometry x="40" y="640" width="740" height="260" as="geometry" />
        </mxCell>
        
        <mxCell id="additions-title" value="&lt;h2&gt;Colecciones Propuestas (Adicionales)&lt;/h2&gt;" style="text;html=1;strokeColor=none;fillColor=none;align=left;verticalAlign=middle;whiteSpace=wrap;rounded=0;" vertex="1" parent="WIyWlLk6GJQsqaUBKTNV-1">
          <mxGeometry x="60" y="650" width="350" height="30" as="geometry" />
        </mxCell>

        <!-- CATEGORIES BOX -->
        <mxCell id="categories-collection" value="&lt;b&gt;categories&lt;/b&gt;&lt;br&gt;Categorías de planes&lt;br&gt;&lt;i&gt;(para gestión administrativa)&lt;/i&gt;" style="rounded=1;whiteSpace=wrap;html=1;fillColor=#fff2cc;strokeColor=#d6b656;" vertex="1" parent="WIyWlLk6GJQsqaUBKTNV-1">
          <mxGeometry x="70" y="690" width="160" height="70" as="geometry" />
        </mxCell>

        <!-- INTERESTS BOX -->
        <mxCell id="interests-collection" value="&lt;b&gt;interests&lt;/b&gt;&lt;br&gt;Intereses disponibles&lt;br&gt;&lt;i&gt;(para selección en perfiles)&lt;/i&gt;" style="rounded=1;whiteSpace=wrap;html=1;fillColor=#fff2cc;strokeColor=#d6b656;" vertex="1" parent="WIyWlLk6GJQsqaUBKTNV-1">
          <mxGeometry x="250" y="690" width="160" height="70" as="geometry" />
        </mxCell>

        <!-- ANALYTICS BOX -->
        <mxCell id="analytics-collection" value="&lt;b&gt;analytics&lt;/b&gt;&lt;br&gt;Datos de uso y estadísticas&lt;br&gt;&lt;i&gt;(para administración)&lt;/i&gt;" style="rounded=1;whiteSpace=wrap;html=1;fillColor=#fff2cc;strokeColor=#d6b656;" vertex="1" parent="WIyWlLk6GJQsqaUBKTNV-1">
          <mxGeometry x="430" y="690" width="160" height="70" as="geometry" />
        </mxCell>

        <!-- REPORTS BOX -->
        <mxCell id="reports-collection" value="&lt;b&gt;reports&lt;/b&gt;&lt;br&gt;Reportes de usuarios&lt;br&gt;&lt;i&gt;(moderación de contenido)&lt;/i&gt;" style="rounded=1;whiteSpace=wrap;html=1;fillColor=#fff2cc;strokeColor=#d6b656;" vertex="1" parent="WIyWlLk6GJQsqaUBKTNV-1">
          <mxGeometry x="610" y="690" width="160" height="70" as="geometry" />
        </mxCell>

        <!-- FEEDBACK BOX -->
        <mxCell id="feedback-collection" value="&lt;b&gt;feedback&lt;/b&gt;&lt;br&gt;Valoraciones post-plan&lt;br&gt;&lt;i&gt;(para sistema de reputación)&lt;/i&gt;" style="rounded=1;whiteSpace=wrap;html=1;fillColor=#fff2cc;strokeColor=#d6b656;" vertex="1" parent="WIyWlLk6GJQsqaUBKTNV-1">
          <mxGeometry x="160" y="780" width="160" height="70" as="geometry" />
        </mxCell>

        <!-- CONFIGURATION BOX -->
        <mxCell id="config-collection" value="&lt;b&gt;configurations&lt;/b&gt;&lt;br&gt;Ajustes generales app&lt;br&gt;&lt;i&gt;(para administración)&lt;/i&gt;" style="rounded=1;whiteSpace=wrap;html=1;fillColor=#fff2cc;strokeColor=#d6b656;" vertex="1" parent="WIyWlLk6GJQsqaUBKTNV-1">
          <mxGeometry x="340" y="780" width="160" height="70" as="geometry" />
        </mxCell>

        <!-- LOCATIONS BOX -->
        <mxCell id="locations-collection" value="&lt;b&gt;locations&lt;/b&gt;&lt;br&gt;Lugares populares&lt;br&gt;&lt;i&gt;(para autocompletado)&lt;/i&gt;" style="rounded=1;whiteSpace=wrap;html=1;fillColor=#fff2cc;strokeColor=#d6b656;" vertex="1" parent="WIyWlLk6GJQsqaUBKTNV-1">
          <mxGeometry x="520" y="780" width="160" height="70" as="geometry" />
        </mxCell>

        <!-- FOOTER -->
        <mxCell id="footer" value="&lt;h3&gt;Para más detalles, consulte los diagramas específicos de cada colección&lt;/h3&gt;" style="text;html=1;strokeColor=none;fillColor=none;align=center;verticalAlign=middle;whiteSpace=wrap;rounded=0;" vertex="1" parent="WIyWlLk6GJQsqaUBKTNV-1">
          <mxGeometry x="40" y="920" width="740" height="40" as="geometry" />
        </mxCell>

      </root>
    </mxGraphModel>
  </diagram>
</mxfile>